<!DOCTYPE svg PUBLIC "-//W3C//DTD SVG 20010904//EN" "http://www.w3.org/TR/2001/REC-SVG-20010904/DTD/svg10.dtd">
<svg version="1.0" xmlns="http://www.w3.org/2000/svg" width="584px" height="674px" viewBox="0 0 5840 6740" preserveAspectRatio="xMidYMid meet">
<g id="layer101" fill="#002951" stroke="none">
 <path d="M1455 5902 l-1450 -838 -3 -1691 -2 -1691 1440 -831 c792 -457 1450 -836 1463 -842 20 -9 77 21 507 270 l485 280 3 555 c1 306 5 556 7 556 4 0 590 -336 935 -537 24 -14 42 -5 510 265 l485 280 0 1694 0 1693 -480 277 c-264 153 -484 278 -490 278 -5 0 -224 -124 -485 -275 l-475 -274 -5 557 -5 557 -480 277 c-264 153 -487 278 -495 277 -8 0 -667 -377 -1465 -837z"/>
 </g>
<g id="layer102" fill="#005ec4" stroke="none">
 <path d="M1455 5902 l-1450 -838 -3 -1691 -2 -1691 1440 -831 c792 -457 1450 -836 1463 -842 20 -9 77 21 502 266 264 153 483 280 487 284 3 3 -648 384 -1449 846 -801 462 -1457 844 -1459 850 -2 5 -3 510 -2 1121 l3 1111 480 -277 480 -278 3 -563 2 -564 68 -37 c37 -21 78 -45 92 -53 35 -20 246 -143 295 -170 22 -13 81 -46 130 -75 50 -29 110 -64 135 -78 25 -14 74 -42 109 -64 34 -21 65 -38 66 -38 2 0 55 -30 117 -66 62 -37 138 -81 168 -97 30 -17 95 -55 144 -84 49 -29 90 -53 91 -53 1 0 54 -30 116 -66 63 -37 134 -78 158 -92 25 -14 68 -38 95 -55 28 -16 71 -41 96 -55 25 -13 52 -30 60 -37 8 -7 220 -131 470 -275 250 -144 466 -269 480 -277 27 -16 -10 -36 863 469 l138 80 -82 49 c-45 27 -83 49 -85 49 -2 0 -44 25 -95 55 -50 30 -93 55 -95 55 -1 0 -54 30 -116 66 -62 37 -138 81 -168 97 -30 17 -94 54 -141 82 -47 29 -92 55 -100 58 -8 3 -468 269 -1024 590 l-1010 584 -3 1686 c-1 928 -5 1687 -10 1687 -4 -1 -659 -378 -1457 -838z"/>
 <path d="M4377 5343 l-477 -275 2 -570 3 -570 475 -274 475 -274 3 560 c1 308 1 812 0 1119 l-3 560 -478 -276z"/>
 </g>
<g id="layer103" fill="#0f99ff" stroke="none">
 <path d="M1515 4804 c-231 -134 -446 -259 -479 -278 l-58 -33 479 -276 c264 -153 483 -277 486 -277 4 0 7 250 7 555 0 305 -3 555 -7 554 -5 -1 -197 -111 -428 -245z"/>
 <path d="M2438 3091 c-263 -152 -478 -278 -478 -281 0 -3 433 -255 962 -560 528 -305 966 -560 972 -566 19 -18 969 -565 976 -562 27 11 960 554 960 559 0 5 -2889 1676 -2910 1684 -3 1 -220 -122 -482 -274z"/>
 <path d="M615 2039 c-198 -115 -418 -242 -488 -283 l-128 -73 1452 -838 c799 -462 1459 -839 1468 -839 20 -1 972 546 968 556 -2 6 -2689 1562 -2862 1658 l-50 27 -360 -208z"/>
 </g>

</svg>